<?xml version="1.0" encoding="iso-8859-1"?>
<!-- Uploaded to: SVG Repo, www.svgrepo.com, Generator: SVG Repo Mixer Tools -->
<!DOCTYPE svg PUBLIC "-//W3C//DTD SVG 1.1//EN" "http://www.w3.org/Graphics/SVG/1.1/DTD/svg11.dtd">
<svg fill="#000000" version="1.1" id="Capa_1" xmlns="http://www.w3.org/2000/svg" xmlns:xlink="http://www.w3.org/1999/xlink" 
	 width="800px" height="800px" viewBox="0 0 653.959 653.96"
	 xml:space="preserve">
<g>
	<g>
		<path d="M549.134,210.242l-0.025-0.053c0.03,0.007,0.062,0.015,0.096,0.019C549.182,210.222,549.155,210.228,549.134,210.242z"/>
		<path d="M539.811,194.812c-0.003-0.001-0.005-0.001-0.006-0.001c0.001-0.016,0.006-0.032,0.006-0.047V194.812z"/>
	</g>
	<path d="M437.625,285.992c-1.182-32.544-23.748-39.378-44.172-47.621l-0.072-68.736c1.036-19.729-16.163-27.65-35.885-28.693
		c-19.737-1.021-33.405,4.564-34.237,13.224c-1.021-19.46-17.065-23.916-37.548-23.916c-21.181,0-39.051,4.704-39.051,25.871v4.886
		c-1.051-16.083-17.446-20.852-38.277-20.852c-21.181,0-38.351,4.879-38.351,26.067l0.058,6.032
		c-1.035-1.634-15.462-141.893-15.462-141.893c-1.21-17.184-10.897-32.588-29.247-30.094c-16.834,2.29-21.648,16.024-20.452,33.216
		l14.659,209.483l1.313,215.026c-2.146,17.703,10.299,47.577,25.324,51.137v94.906c0,27.562,16.645,49.926,44.215,49.926
		c0,0,113.577-0.139,115.24-0.336c25.163-0.831,49.511-21.305,49.511-46.497l-0.072-104.737
		c22.36-5.603,75.781-108.188,82.944-150.666C440.703,336.062,437.625,285.992,437.625,285.992z"/>
</g>
</svg>